<?xml version="1.0" encoding="utf-8"?>
<!-- Generator: Adobe Illustrator 24.2.1, SVG Export Plug-In . SVG Version: 6.00 Build 0)  -->
<svg version="1.1" id="图层_1" xmlns="http://www.w3.org/2000/svg" xmlns:xlink="http://www.w3.org/1999/xlink" x="0px" y="0px"
	 viewBox="0 0 300 300" style="enable-background:new 0 0 300 300;" xml:space="preserve">
<style type="text/css">
	.st0{fill:#F2EBDD;}
	.st1{fill:#EF8600;}
	.st2{fill:#CE651F;}
	.st3{fill:#8B4C34;}
	.st4{fill:#F1B171;}
	.st5{fill:#F09B4B;}
	.st6{fill:#B5320C;}
	.st7{fill:#EC5449;}
	.st8{fill:#EC96A4;}
	.st9{fill:#D93928;}
	.st10{fill:#E45215;}
	.st11{fill:#FFCB00;}
	.st12{fill:#FDCC2A;}
	.st13{fill:#FFEE00;}
	.st14{fill:#E82218;}
	.st15{fill:#FFFFFF;}
	.st16{fill:#231814;}
	.st17{fill:#632E19;}
	.st18{fill:#5F1C02;}
	.st19{fill:#803C2A;}
	.st20{fill:#F3A200;}
	.st21{fill:#FFDE00;}
	.st22{fill:#D83A15;}
</style>
<circle class="st0" cx="150" cy="150" r="150"/>
<g>
	<g>
		<polygon class="st1" points="107.58,203.88 107.58,255.44 123.83,204.73 		"/>
		<polygon class="st1" points="125.81,202.38 130.91,240.91 134.75,195.85 		"/>
		<polygon class="st2" points="123.01,206.81 107.76,254.86 116.29,204.67 		"/>
		<polygon class="st2" points="130.87,205.81 131.02,239.69 134,204.67 		"/>
		<polygon class="st3" points="106.65,254.1 99.88,249.71 97.47,251.91 		"/>
		<polygon class="st3" points="106.15,255.44 91.16,254.86 92.12,258.73 		"/>
		<polygon class="st3" points="106.65,255.98 99.63,258.73 101.14,260.99 		"/>
		<polygon class="st3" points="109.53,255.44 115.39,255.44 113.91,257.73 		"/>
		<polyline class="st3" points="127.94,237.57 125.81,238.57 129.16,239.69 		"/>
		<polygon class="st3" points="129.16,240.32 123.01,242.83 125.18,245.08 		"/>
		<polygon class="st3" points="130.28,241.7 129.58,246.21 132.43,245.08 		"/>
		<polygon class="st3" points="133.85,239.69 144.09,239.69 139.96,241.7 		"/>
	</g>
	<g>
		<path class="st4" d="M202.88,131.95c7.89-13.85,24.77-29.65,45.19-21.24c26.28,10.82,41.48-24.9,16.48-31.71
			c-54.89-14.96-71.93,52.88-71.93,52.88L202.88,131.95z"/>
		<path class="st4" d="M199.96,140.81c6.71-5.47,19.06-10.57,27.88-10.33c12.45,0.34,17.16,18.6,30.48,11.18
			c12.61-7.02-0.67-30.52-23.85-28.44c-24.51,2.2-36.17,19.21-36.17,19.21L199.96,140.81z"/>
		<path class="st4" d="M195.35,146.08c7.44-2.99,23.4-1.25,30.24,7.07c5.96,7.25,21.52,1.44,14.63-10.49
			c-11.07-19.19-42.18-2.92-42.18-2.92L195.35,146.08z"/>
	</g>
	<g>
		<path class="st5" d="M258.31,141.66c8.71-4.85,5.07-17.56-5.66-24.27c-19.95,16.67-4.85,25.01-4.81,25.03
			C250.83,143.79,254.15,143.98,258.31,141.66z"/>
		<path class="st5" d="M240.22,142.65c-0.96-1.67-2.08-3.06-3.31-4.23c-19.4,6.71-9.21,16.48-9.04,16.64
			C234.71,159.04,246.35,153.28,240.22,142.65z"/>
		<path class="st5" d="M264.54,79c-6.08-1.66-11.69-2.29-16.87-2.12c-13.21,29.77,0.73,35.58,10.8,35.85
			C277.84,112,286.01,84.85,264.54,79z"/>
		<path class="st5" d="M199.45,132.34c5.39-13.24,12.92-23.37,22.37-30.12l9.28-0.22l0.05-1.06l-6.31-0.71
			c9.82-6,17.84-6.21,17.92-6.21l0.52-0.01l0.01-1.79l-0.52-0.02c-0.05,0-4.77-0.08-11.38,2.26l0.64-6.22L231,88.05l-1.9,7.3
			c-6.07,2.53-11.66,6.35-16.65,11.38l0.28-6.1l-1.05-0.13l-1.71,8.88c-5.29,6.02-9.77,13.48-13.31,22.18l-0.47,1.15l3.02,0.23
			L199.45,132.34z"/>
		<path class="st5" d="M245.48,124.88c-0.12-0.08-3.22-2.14-8.83-3.08l4.02-3.21l-0.59-0.88l-6.75,3.7
			c-4.87-0.33-9.95,0.36-15.12,2.08l-0.49-0.18l-0.15,0.4c-6.34,2.2-12.81,5.93-19.23,11.1l-0.43,0.34l0.59,2.97l1.16-0.94
			c6.5-5.23,13.13-8.97,19.71-11.12l5.43,1.01l0.28-1.02l-2.47-0.92c6.89-1.71,12.37-1.33,15.83-0.66c3.84,0.74,6.06,1.95,6.09,1.96
			l0.45,0.25l0.92-1.51L245.48,124.88z"/>
		<path class="st5" d="M223.43,139.26l5.09-2.06l-0.32-1.01l-8.58,2.05c-6.48-1.21-14.13-0.29-22.75,2.72l-0.38,0.13l-1.49,3.51
			l1.93-0.67c11.1-3.88,19.14-3.6,23.93-2.68c4.46,0.86,6.79,2.4,6.82,2.41l0.42,0.28l1.05-1.38l-0.36-0.33
			C228.29,141.79,226.58,140.38,223.43,139.26z"/>
	</g>
	<path class="st6" d="M205.4,116.91c0,0-64.94,41.14-114.08,8.01l-25.2-9.33l-13.2,20.48c0,40.31,33.37,73,74.54,73
		c41.17,0,74.54-32.68,74.54-73l-2.85,0.92L205.4,116.91z"/>
	<path class="st1" d="M138.24,178.9c34.92-23.62,45.61-37.19,49.82-53.11c-22.39,9.75-62.43,21.38-95.61-0.12l-26.19,0.95
		C70.77,188.67,138.24,178.9,138.24,178.9z"/>
	<g>
		<path class="st7" d="M103.22,63.99c0,9.57-7.75,17.32-17.32,17.32c-9.56,0-17.32-7.75-17.32-17.32c0-9.57,7.75-17.32,17.32-17.32
			C95.46,46.67,103.22,54.43,103.22,63.99z"/>
		<path class="st8" d="M72.44,66.59c0-9.56,7.75-17.32,17.32-17.32c2.74,0,5.32,0.64,7.63,1.77c-3.06-2.71-7.08-4.36-11.49-4.36
			c-9.56,0-17.32,7.75-17.32,17.32c0,6.83,3.95,12.73,9.69,15.55C74.7,76.37,72.44,71.74,72.44,66.59z"/>
		<path class="st7" d="M76.4,69.15c0,5.6-4.54,10.13-10.13,10.13c-5.6,0-10.13-4.53-10.13-10.13c0-5.6,4.53-10.13,10.13-10.13
			C71.86,59.02,76.4,63.56,76.4,69.15z"/>
		<path class="st8" d="M59.33,69.15c0-5.05,2.12-9.72,8.53-9.99c-0.52-0.08-1.05-0.14-1.6-0.14c-5.6,0-10.13,4.54-10.13,10.13
			c0,5.6,4.53,10.13,10.13,10.13c0.54,0,1.08-0.05,1.6-0.14C63.03,78.38,59.33,74.2,59.33,69.15z"/>
		<path class="st7" d="M63.87,77.52c0,3.53-2.86,6.39-6.39,6.39c-3.53,0-6.39-2.86-6.39-6.39c0-3.53,2.86-6.39,6.39-6.39
			C61.01,71.13,63.87,73.99,63.87,77.52z"/>
		<path class="st7" d="M59.33,85.16c0,2.35-1.91,4.26-4.26,4.26c-2.36,0-4.26-1.91-4.26-4.26c0-2.35,1.91-4.26,4.26-4.26
			C57.43,80.9,59.33,82.81,59.33,85.16z"/>
		<rect x="68.58" y="72.45" class="st7" width="9.64" height="7.64"/>
		<path class="st9" d="M62.79,76.75c8.17-4.61,14.75-7.6,14.75-7.6c10.83-4.52,14.46,1.97,14.46,1.97
			c3.51,6.39-3.65,10.18-3.65,10.18L62.79,76.75z"/>
	</g>
	<g>
		<polygon class="st1" points="37.28,98.36 52.39,97.17 52.39,102.71 		"/>
		<polygon class="st10" points="52.39,97.17 47.63,101.34 52.39,102.71 		"/>
		<polygon class="st11" points="52.39,91.17 37.28,98.36 52.39,97.17 		"/>
	</g>
	<path class="st12" d="M95.75,128.8l5.48,7.39l-8.74-34.13L90.64,86.8l-0.02,0c-0.77-5.63-5.54-9.99-11.36-10.1v-0.01H64.41v0.02
		c-0.1,0-0.2-0.02-0.3-0.02c-6.47,0-11.71,5.25-11.71,11.71v42.98v13.24l3.75-11.52l2.46,13.27l3.48-13.15l2.89,11.97l2.58-12.59
		l3.7,12.09l2.16-12.89l4.98,13.7l3.01-13.65l5.63,13.03l1.38-13.08l9.33,11.07l-1.66-11.49L95.75,128.8z"/>
	<path class="st13" d="M92.49,102.05L90.64,86.8l-0.02,0c-0.77-5.63-5.54-9.99-11.36-10.1v-0.01H64.41v0.02
		c-0.1,0-0.2-0.02-0.3-0.02c-6.47,0-11.71,5.25-11.71,11.71v19.93C72.29,117.34,86.1,108.2,92.49,102.05z"/>
	<path class="st14" d="M63.7,108.59c7.64,0,13.84-6.2,13.84-13.84c0-7.65-6.2-13.84-13.84-13.84c-4.58,0-8.63,2.23-11.15,5.66
		c-0.09,0.6-0.16,1.21-0.16,1.83v14.32C54.9,106.27,59.02,108.59,63.7,108.59z"/>
	<g>
		<path class="st15" d="M66.12,92.74c0,2.23-1.81,4.05-4.04,4.05c-2.23,0-4.04-1.81-4.04-4.05c0-2.23,1.81-4.04,4.04-4.04
			C64.31,88.7,66.12,90.51,66.12,92.74z"/>
		<path class="st16" d="M64.96,92.74c0,1.6-1.29,2.89-2.88,2.89c-1.6,0-2.89-1.29-2.89-2.89c0-1.59,1.29-2.88,2.89-2.88
			C63.67,89.86,64.96,91.15,64.96,92.74z"/>
		<path class="st15" d="M61.4,91.48c0.19,0.57-0.12,1.18-0.68,1.37c-0.57,0.19-1.18-0.12-1.37-0.68c-0.19-0.57,0.12-1.18,0.68-1.37
			C60.6,90.6,61.21,90.91,61.4,91.48z"/>
	</g>
	<path class="st4" d="M141.12,148.28c19.27,0.51,30.99-4.88,32.01-13.28c0.13-1.12-0.23-2.24-0.76-3.31
		c-19.63,6.23-45.23,9.97-68.85-0.13C103.43,131.96,117.92,147.67,141.12,148.28z"/>
	<g>
		<path class="st17" d="M93.43,159.98l82.23-11.7c-4.86,54.63-52.17,50.76-52.17,50.76C78.58,193.99,93.43,159.98,93.43,159.98z"/>
		<path class="st3" d="M175.66,148.28l-82.23,11.7c0,0-4.31,10.31-1.08,20.26C110.9,180.72,149.54,177.75,175.66,148.28z"/>
		<path class="st18" d="M161.68,183.96c-1.65-3.81-6.89-11.66-20.65-4.52c0,0,3.7-15.21-14.09-12.3c0,0,6.9-7.46-0.46-11.85
			l-27.57,3.92c-2.4,8.08-6.33,32.24,30.97,36.43c0,0,11.08,0.9,23.07-4.36C155.97,189.35,158.94,186.95,161.68,183.96z"/>
		<path class="st19" d="M126.94,167.13c0,0,6.9-7.46-0.46-11.85l-27.57,3.92c-1.27,4.28-2.97,13.07,1.26,21.02
			c11.03-0.35,25.72-2.16,40.52-7.94C139.41,168.81,135.91,165.67,126.94,167.13z"/>
		<path class="st20" d="M134.64,182.85c0,0,3.7-15.22-14.09-12.3c0,0,9.3-10.05-5.16-13.68l0,0l-21.95,3.12
			c0,0-14.86,34.01,30.06,39.06c0,0,17.61,1.44,32.44-9.84C155.93,189.19,152.29,173.69,134.64,182.85z"/>
		<path class="st21" d="M120.55,170.54c0,0,9.3-10.05-5.16-13.68l-21.95,3.12c0,0-4.31,10.31-1.08,20.26
			c9.82,0.25,25.26-0.46,41.49-5.56C132.28,171.65,128.65,169.21,120.55,170.54z"/>
	</g>
	<path class="st22" d="M54.67,151.86c3.92,17.42,14.19,32.5,28.31,42.81C82.23,180.91,77.26,159.58,54.67,151.86z"/>
	<path class="st10" d="M52.39,102.72l-4.5,12.63c0,0,0,0.01,0,0.01l-0.09,0.25c0,0.01,0.01,0.01,0.01,0.01
		c-0.06,0.21-0.1,0.42-0.1,0.64c0,1.29,1.05,2.34,2.34,2.34c1.3,0,2.35-1.05,2.35-2.34c0-0.03-0.01-0.06-0.01-0.09
		c0.01-0.01,0.01-0.01,0.01-0.01V102.72z"/>
	<polygon class="st13" points="52.39,108.33 52.39,117.6 54.05,111.52 55.65,119.73 57.48,111.02 58.57,119.33 62,112.75 
		63.87,121.52 65.75,113.15 70.47,122.25 71.99,112.75 77.54,123.12 78.51,112.11 80.43,119.93 82.69,110.66 85.9,117.67 
		85.9,109.83 91.16,117.2 90.8,108.33 92.96,115.6 92.49,106.04 95.21,112.68 92.31,100.52 78.97,105.64 71.93,108.3 65.28,110.09 
		60.37,109.03 54.25,108.1 	"/>
</g>
</svg>
