<?xml version="1.0" standalone="no"?><!DOCTYPE svg PUBLIC "-//W3C//DTD SVG 1.1//EN" "http://www.w3.org/Graphics/SVG/1.1/DTD/svg11.dtd"><svg t="1616828219873" class="icon" viewBox="0 0 1410 1024" version="1.1" xmlns="http://www.w3.org/2000/svg" p-id="2691" xmlns:xlink="http://www.w3.org/1999/xlink" width="88.125" height="64"><defs><style type="text/css"></style></defs><path d="M0.00217 72.676287v800.905368a36.158256 36.158256 0 0 0 41.581995 36.158256C447.641379 854.779362 650.850777 1024 650.850777 1024v-903.956398C407.144132-62.917173 112.454346 10.845669 25.312949 38.687526A36.158256 36.158256 0 0 0 0.00217 72.676287zM1410.174151 287.094744V72.676287a36.158256 36.158256 0 0 0-25.310779-36.158256C1297.721976 10.845669 1003.03219-62.917173 759.325545 120.043602v253.107791c113.175341-56.045297 370.622123-158.011578 650.848606-86.056649zM759.325545 476.564005v547.435995s203.209398-169.220638 609.266612-114.983254a36.158256 36.158256 0 0 0 41.581994-36.158256v-491.75228c-302.644602-87.864562-589.741154 60.74587-650.848606 95.457795z" fill="#bfbfbf" p-id="2692"></path></svg>