<?xml version="1.0" encoding="utf-8"?>
<!-- Generator: Adobe Illustrator 24.2.1, SVG Export Plug-In . SVG Version: 6.00 Build 0)  -->
<svg version="1.1" id="图层_1" xmlns="http://www.w3.org/2000/svg" xmlns:xlink="http://www.w3.org/1999/xlink" x="0px" y="0px"
	 viewBox="0 0 300 300" style="enable-background:new 0 0 300 300;" xml:space="preserve">
<style type="text/css">
	.st0{fill:#F4EAEA;}
	.st1{fill:#CCB5A9;}
	.st2{fill:#E2B57C;}
	.st3{fill:#C09156;}
	.st4{fill:#A37647;}
	.st5{fill:#231814;}
	.st6{fill:#4A3016;}
	.st7{fill:#F8EAD3;}
	.st8{fill:#FDF4EC;}
	.st9{fill:#EE7D02;}
	.st10{fill:#372209;}
	.st11{fill:#6E6E6D;}
	.st12{fill:#141412;}
	.st13{fill:#865D46;}
	.st14{fill:#6C4A2C;}
	.st15{fill:#FFFFFF;}
</style>
<circle class="st0" cx="150" cy="150" r="150"/>
<g>
	<polygon class="st1" points="215.79,211.38 212.88,216.4 223.58,216.4 221.49,172.41 205.37,163.75 	"/>
	<polygon class="st1" points="94.23,216.4 106.38,216.4 104.99,172.62 88.37,166.41 97.15,211.38 	"/>
	<path class="st2" d="M274.44,100.22c0,0-0.13,1.19-0.6,3.05c-1.92,7.57-9.54,26.38-37.73,23.32h-0.01l-29.68-3.62l0,0l-29.33-3.58
		l0,0L124.68,113c0,0-10.54-1.33-22.58-8.17l-8.23-5.29l-23.1-15.51h-6.46H52.55l-7.05,8.22l-19.23,6.77l-3.82,1.35l1.61,2.15
		l4.68,6.25l13.71-1.66l-2.8,6.4l-5.17,2.93l3.9,5.21l14.83-5.05l13.08,18.91l28.54,41.26l10.55,46.56l-2.92,5.02h12.15l-1.74-54.89
		c7.67,2.35,30.65,6.38,63.57-14.46l0.01,0.01l0,0c5.57,13.55,16.49,20.41,20.39,22.51c0,0,0,0,0.01,0.01
		c0.14,0.08,0.27,0.15,0.4,0.21c0.01,0,0.01,0.01,0.02,0.01c0.25,0.13,0.46,0.23,0.62,0.31c0.01,0,0.01,0.01,0.02,0.01
		c0.07,0.03,0.13,0.06,0.18,0.08c0.01,0.01,0.02,0.01,0.03,0.02c0.04,0.02,0.07,0.03,0.1,0.04c0.01,0.01,0.01,0.01,0.02,0.01
		c0.02,0.01,0.04,0.02,0.04,0.02l29.3,14.14l5.49,26.95l-2.92,5.02h12.14l-1.62-36.06l-10.82-17.89v-20.86v-2.23l-13.04-15.79
		C241.54,146.38,290.33,152.04,274.44,100.22z"/>
	<path class="st3" d="M124.68,113.01c22.42,31.23,58.24,7.37,58.24,7.37"/>
	<path class="st3" d="M93.87,99.55l-23.1-15.51h-6.46H52.55l-7.05,8.22l-19.23,6.77l-3.82,1.35l1.61,2.15l4.68,6.25l13.71-1.66
		l-2.8,6.4l-5.17,2.93l3.9,5.21l14.83-5.05l13.08,18.91l14.67,21.21c0,0,0.63-29.84,21.15-51.88L93.87,99.55z"/>
	<path class="st2" d="M74.55,86.58l-3.78-2.54h-6.46H58.5h-5.95l-7.05,8.22l-23.06,8.12l1.61,2.15l33.97-10.27
		c3.97-1.29,5.45-3.78,6-5.68C64.02,86.58,74.55,86.58,74.55,86.58z"/>
	<path class="st4" d="M97.28,101.74c0,0-29.69,7.7-48.85-6.58c-1.1-0.82-2.03-1.85-2.93-2.9l-23.06,8.12l6.29,8.4l13.71-1.66
		l-2.8,6.4l-5.17,2.93l3.9,5.21l14.83-5.05l27.75,40.12c0,0,0.63-29.84,21.15-51.88L97.28,101.74z"/>
	<path class="st3" d="M45.5,92.26l-23.06,8.12l1.61,2.15l24.38-7.37C47.38,94.28,46.39,93.31,45.5,92.26z"/>
	<polygon class="st5" points="57.83,88.16 57.3,91.47 49.38,91.67 	"/>
	<polygon class="st6" points="24.05,102.53 27.05,101.62 27.05,98.76 22.44,100.38 	"/>
	<path class="st7" d="M177.09,119.4L177.09,119.4c0,0,0-0.01,0-0.02C177.09,119.39,177.09,119.39,177.09,119.4z"/>
	<path class="st3" d="M176.43,159.01c-5.9-12.86-1.52-32.18-1.52-32.18c-5.42,16.63-5.02,26.3-2.82,34.82
		C173.51,160.81,174.96,159.94,176.43,159.01L176.43,159.01z"/>
	<path class="st3" d="M107.04,137.53l5.82,35.94c4.49,1.38,14.23,3.32,28.15,0.52l0,0C140.27,174,112.55,174.5,107.04,137.53z"/>
	<path class="st8" d="M173.98,150.83L173.98,150.83c0,0-23.29,13.63-63.93,5.3l2.81,17.34c7.67,2.35,30.65,6.38,63.57-14.46
		l0.01,0.01C175.41,156.52,174.56,153.79,173.98,150.83z"/>
	<path class="st1" d="M173.98,150.83C173.98,150.83,173.97,150.83,173.98,150.83c0,0-1.18,0.69-3.45,1.65
		c0.31,3.58,0.92,6.68,1.55,9.16c0.69-0.4,1.38-0.81,2.07-1.23c0.05-0.03,0.11-0.07,0.17-0.1c0.7-0.43,1.4-0.86,2.1-1.31l0,0
		C175.4,156.51,174.56,153.79,173.98,150.83z"/>
	<path class="st1" d="M141.01,173.99L141.01,173.99c-0.57,0.01-17.66,0.32-27.71-17.24c-1.07-0.19-2.15-0.4-3.25-0.62l2.81,17.34
		c0.13,0.04,0.26,0.08,0.4,0.12c0.04,0.01,0.09,0.02,0.13,0.04c0.1,0.03,0.21,0.06,0.32,0.09c0.05,0.01,0.09,0.03,0.15,0.04
		c0.11,0.03,0.22,0.06,0.33,0.09c0.05,0.01,0.09,0.03,0.14,0.04c0.13,0.03,0.25,0.06,0.38,0.1c0.04,0.01,0.08,0.02,0.12,0.03
		c0.16,0.04,0.33,0.08,0.5,0.12h0.02c0.38,0.09,0.78,0.17,1.2,0.26h0.01c0.2,0.04,0.41,0.08,0.62,0.12c0.02,0,0.04,0.01,0.06,0.01
		c0.2,0.04,0.4,0.07,0.61,0.11c0.02,0,0.03,0,0.05,0.01C123.19,175.56,131.02,176,141.01,173.99z"/>
	<polygon class="st9" points="40.28,107.38 42.44,107.12 39.64,113.52 34.47,116.45 38.77,113.5 	"/>
	<polygon class="st10" points="27.05,101.62 35.37,107.98 28.73,108.78 24.05,102.53 	"/>
	<polygon class="st11" points="64.32,84.04 60.53,71.65 60.53,84.04 	"/>
	<polygon class="st12" points="70.78,84.04 60.53,71.65 62.28,84.04 	"/>
	<path class="st13" d="M55.48,115.78l-2.29,0.82l27.75,40.12c0,0,0.12-5.78,2.01-14.12L55.48,115.78z"/>
	<path class="st14" d="M187.48,156.24L187.48,156.24c0-0.01,0-0.02,0-0.03C187.48,156.22,187.48,156.24,187.48,156.24z"/>
	<path class="st13" d="M274.44,100.22c0,0-0.13,1.19-0.6,3.05c-1.92,7.57-9.54,26.38-37.73,23.32h-0.01l-29.68-3.62l10.36,12.54
		l19.32,2.36h0.01c15.27,1.66,24.51-3.11,30.07-9.02C277.69,115.92,274.44,100.22,274.44,100.22z"/>
	<polygon class="st15" points="55.18,90.49 54.47,91.54 57.3,91.47 	"/>
	<path class="st3" d="M216.78,135.51c-24.04,34.34,18.38,47.72,18.38,47.72l-5.34-8.83v-23.09L216.78,135.51z"/>
	<path class="st3" d="M85.38,163.12c26.61,4.94,13.61,32.03,13.61,32.03l-4.16-18.38L85.38,163.12z"/>
</g>
</svg>
