<?xml version="1.0" encoding="utf-8"?>
<!-- Generator: Adobe Illustrator 24.2.1, SVG Export Plug-In . SVG Version: 6.00 Build 0)  -->
<svg version="1.1" id="图层_1" xmlns="http://www.w3.org/2000/svg" xmlns:xlink="http://www.w3.org/1999/xlink" x="0px" y="0px"
	 viewBox="0 0 300 300" style="enable-background:new 0 0 300 300;" xml:space="preserve">
<style type="text/css">
	.st0{fill:#E2E1E1;}
	.st1{fill:#80807F;}
	.st2{fill:#6E6E6D;}
	.st3{fill:#585857;}
	.st4{fill:#50504F;}
	.st5{fill:#4A4A49;}
	.st6{fill:url(#SVGID_1_);}
	.st7{fill:#3A3938;}
	.st8{fill:url(#SVGID_2_);}
	.st9{fill:#5D5D5C;}
	.st10{fill:url(#SVGID_3_);}
	.st11{fill:url(#SVGID_4_);}
	.st12{fill:#848483;}
	.st13{fill:#AAAAAB;}
	.st14{fill:none;stroke:#7E7D7D;stroke-width:8.5039;stroke-miterlimit:10;}
	.st15{fill:#141412;}
	.st16{fill:#BFBFBF;}
</style>
<circle class="st0" cx="150" cy="150" r="150"/>
<g>
	<polyline class="st1" points="98.05,180.57 84.83,196.96 73.61,237.84 77.12,237.84 86.94,208.04 106.12,188.02 98.05,180.57 	"/>
	<polygon class="st1" points="215.93,173.37 270.13,211.9 275,211.9 224.81,172.6 	"/>
	<path class="st2" d="M97.09,138.06l1.73-5.55c-30.42-41.39-58.79-8.78-58.79-8.78c-14.81,18.42-0.91,36.51-0.91,36.51
		c8.71,13.51-3.9,17.97-14.12,19.43v0c20.15-0.71,60.52,0.9,47.76,26.7c0,0,38.21-31.86,5.1-43.44c0,0-14.19-4.23-11.2-18.3
		C66.66,144.63,72.01,124.47,97.09,138.06z"/>
	<path class="st3" d="M235.42,63.42c-50.58,12.93-60.29,61.26-60.29,61.26c-16.95,3.51-46.81,0.88-46.81,0.88
		c-47.29-5.83-38.96,37.35-38.96,37.35c4.68,20.75,22.04,28.24,22.04,28.24l-2.94,18.07l20.44,35.96h5.32l-16.58-32.52
		c0,0,21.22-16.5,17.7-38.09l0,0.01c0,0,47.98,12.94,56.84-3.18l34.57-10.13c0,0,9.09-18.12-5.32-36.55l5.61-21.43
		c0,0,4.14,2.04,9.49,1.29l19.06,11.37l2.8-1.29l6.54-9.4L235.42,63.42z"/>
	<path class="st3" d="M166.23,125.92c6.52-0.72,9.13-3.13,9.43-3.42l3.84,0.17v4.4h-13.08L166.23,125.92z"/>
	<path class="st4" d="M181.41,157.36c0,0-28.75,14.33-50.24,7.15v0.74l3.98,9.3c10.83,2.7,49.45,11.07,57.02-3.16l0.5-0.15
		L181.41,157.36z"/>
	<path class="st3" d="M181.99,147.93c-7.48,33.04,19.53,29,19.53,29l26.98-4.62v14.78l-17.65,21.38l2.73,2.11l18.77-20.67
		c0,0,1.48-13.28,4.4-25.22l-28.24-9.62L181.99,147.93z"/>
	<path class="st3" d="M201.27,177.25c-3.86,0-7.75-0.53-11.38-1.9l-0.23-0.1c-0.29-0.14-7.2-3.4-9.32-11.05
		c-1.64-5.92,0-12.57,4.88-19.77l5.84,3.96c-3.67,5.4-4.99,10.08-3.92,13.92c1.15,4.12,4.81,6.19,5.4,6.5
		c13.46,5.94,44.03-4.03,44.22-4.12l-1.2,5.34C234.87,170.36,214.29,177.25,201.27,177.25z"/>
	<path class="st5" d="M185.21,144.43c-17.86,16.01-6.3,34.36-6.3,34.36c5.86-0.87,10.19-3.89,10.19-3.89
		C171.39,163.18,185.21,144.43,185.21,144.43z"/>
	<path class="st5" d="M203.94,153.44l22.77,7.82c1.04-2.24,1.63-4.52,1.63-4.52C217.85,156.72,203.94,153.44,203.94,153.44z"/>
	<linearGradient id="SVGID_1_" gradientUnits="userSpaceOnUse" x1="132.5764" y1="176.4236" x2="132.5764" y2="150.5814">
		<stop  offset="0" style="stop-color:#333333;stop-opacity:0"/>
		<stop  offset="0.0879" style="stop-color:#303030;stop-opacity:0.0616"/>
		<stop  offset="0.4617" style="stop-color:#272727;stop-opacity:0.3232"/>
		<stop  offset="1" style="stop-color:#242424;stop-opacity:0.7"/>
	</linearGradient>
	<path class="st6" d="M121.76,150.58c13.32,14.56,13.58,23.98,13.58,23.98c6.54,1.74,8.06,1.86,8.06,1.86
		C139.34,156.79,121.76,150.58,121.76,150.58z"/>
	<polygon class="st7" points="257.07,113.12 260.06,112.23 258.38,114.64 255.58,115.93 	"/>
	<linearGradient id="SVGID_2_" gradientUnits="userSpaceOnUse" x1="102.6295" y1="131.7035" x2="102.6295" y2="192.6169">
		<stop  offset="0" style="stop-color:#333333;stop-opacity:0"/>
		<stop  offset="1" style="stop-color:#242424;stop-opacity:0.8"/>
	</linearGradient>
	<path class="st8" d="M113.95,192.62c-0.89-0.51-21.32-9.4-24.89-31.71c-1.56-9.74,0.6-21.62,9.17-29.2l5.39,5.06
		c-6.28,7.57-8.77,15.24-7.42,22.79c2.85,15.91,20.27,24.8,20.46,24.91L113.95,192.62z"/>
	<polygon class="st4" points="128.89,245.17 108.45,209.21 116.66,184.46 123.69,187.94 114.04,206.9 130.8,245.17 	"/>
	<path class="st9" d="M117.63,212.64l-2.67-5.66c0.11-0.09,11.81-9.41,12.7-22.79c0.55-8.31-3.15-16.6-11.01-24.64l8.01-5.63
		c9.04,9.25,12.02,20.03,10.71,30.17C133.33,199.92,118.19,212.21,117.63,212.64z"/>
	<linearGradient id="SVGID_3_" gradientUnits="userSpaceOnUse" x1="236.7474" y1="160.8432" x2="179.7099" y2="160.8432">
		<stop  offset="0" style="stop-color:#333333;stop-opacity:0"/>
		<stop  offset="1" style="stop-color:#242424;stop-opacity:0.8"/>
	</linearGradient>
	<path class="st10" d="M201.27,177.25c-3.86,0-7.75-0.53-11.38-1.9l-0.23-0.1c-0.29-0.14-7.2-3.4-9.32-11.05
		c-1.64-5.92,0-12.57,4.88-19.77l5.84,3.96c-3.67,5.4-4.99,10.08-3.92,13.92c1.15,4.12,4.81,6.19,5.4,6.5
		c13.46,5.94,44.03-4.03,44.22-4.12l-1.2,5.34C234.87,170.36,214.29,177.25,201.27,177.25z"/>
	<linearGradient id="SVGID_4_" gradientUnits="userSpaceOnUse" x1="189.7489" y1="133.7799" x2="221.6989" y2="133.7799">
		<stop  offset="0" style="stop-color:#333333;stop-opacity:0"/>
		<stop  offset="1" style="stop-color:#242424;stop-opacity:0.8"/>
	</linearGradient>
	<path class="st11" d="M214,142.89c-0.2-0.4-4.99-9.75-24.25-9.75v-8.47c25.11,0,31.68,14.11,31.95,14.71l-7.73,3.44L214,142.89z"/>
	<polygon class="st7" points="126.05,240.17 132.77,240.42 135.53,245.17 128.89,245.17 	"/>
	<polygon class="st7" points="210.84,208.48 212.23,213.79 214.56,209.31 214.32,204.27 	"/>
	<polygon class="st3" points="270.13,211.9 275,211.9 271.6,209.24 267.52,210.05 	"/>
	<polygon class="st3" points="73.61,237.84 78.11,237.84 77.91,235.44 74.08,235.81 	"/>
	<g>
		<polygon class="st7" points="238.93,70.69 242.1,57.18 231.44,67.14 		"/>
		<path class="st2" d="M227.03,103.28c0,0,4.14,2.04,9.49,1.29l19.06,11.37l2.8-1.29l6.54-9.4l-29.51-41.82
			c-50.58,12.93-60.29,61.26-60.29,61.26h46.28L227.03,103.28"/>
		<path class="st3" d="M223.14,77.28c-22.15,13.31-28.12,47.45-28.12,47.45l26.36,0.07l5.56-21.16"/>
		<path class="st7" d="M226.94,103.63l-5.51,21.07c4.31-19.31-0.98-26.34-0.98-26.34C222.48,101.38,226.94,103.63,226.94,103.63z"/>
		<path class="st3" d="M249.25,94.63c-2.5,12.81,7.83,18.49,7.83,18.49l-1.49,2.82l-18.83-11.27"/>
		<path class="st2" d="M223.23,77.28l12.19-13.87l29.51,41.82l-1.67,2.41l-14-13.01c0,0-2.72,10.3-16.01,10.3
			c0,0-14.57,0.39-15.52-15.6c0,0-0.43-7.58,5.42-12.05"/>
		<polygon class="st12" points="261.24,105.26 264.93,105.24 235.42,63.42 234.13,63.77 		"/>
		<g>
			<polygon class="st7" points="231.81,70.67 225.68,66.51 237.12,54.83 235.42,68.85 			"/>
			<polygon class="st13" points="237.12,54.83 235.42,68.85 231.81,70.67 			"/>
		</g>
		<path class="st14" d="M224.45,80.8c-5.66,8.96,0.56,16.08,0.56,16.08c5.62,5.95,14.18,3.04,14.18,3.04"/>
		<polygon class="st3" points="261.24,105.26 255.58,115.93 258.38,114.64 264.93,105.24 		"/>
		<path class="st5" d="M249.16,95.17c0-0.02-4.4,12.33,6.42,20.76l1.49-2.82C257.07,113.11,247.05,107.59,249.16,95.17z"/>
		<g>
			<polygon class="st7" points="255.37,102.66 256.43,106.26 258.48,103.78 			"/>
			<polygon class="st15" points="256.43,103.04 256.43,106.22 258.48,103.78 			"/>
		</g>
		<g>
			<g>
				<polygon class="st7" points="242.18,82.75 240.52,77.19 231.32,80.14 				"/>
				<polygon class="st15" points="236.25,81.33 242.18,82.75 240.52,77.19 				"/>
			</g>
			<polygon class="st16" points="238.52,79.13 236.25,81.33 239.19,80.75 			"/>
		</g>
	</g>
</g>
</svg>
