<?xml version="1.0" encoding="utf-8"?>
<!-- Generator: Adobe Illustrator 24.2.1, SVG Export Plug-In . SVG Version: 6.00 Build 0)  -->
<svg version="1.1" id="图层_1" xmlns="http://www.w3.org/2000/svg" xmlns:xlink="http://www.w3.org/1999/xlink" x="0px" y="0px"
	 viewBox="0 0 300 300" style="enable-background:new 0 0 300 300;" xml:space="preserve">
<style type="text/css">
	.st0{fill:#EBEDF2;}
	.st1{fill:#9D9EBD;}
	.st2{fill:#7378A0;}
	.st3{fill:#626894;}
	.st4{fill:#E3E5F3;}
	.st5{fill:#FFFFFF;}
	.st6{fill:#E1E3F0;}
	.st7{fill:#606593;}
	.st8{fill:#8084AB;}
	.st9{fill:#8D91B4;}
	.st10{fill:#9093B8;}
	.st11{fill:#EA3A27;}
	.st12{fill:#F7B63A;}
	.st13{fill:#241710;}
	.st14{fill:#4E5585;}
</style>
<circle class="st0" cx="150" cy="150" r="150"/>
<g>
	<path class="st1" d="M116.15,71.86c0,9.97-8.08,18.04-18.04,18.04c-9.96,0-18.04-8.08-18.04-18.04c0-9.96,8.08-18.04,18.04-18.04
		C108.07,53.82,116.15,61.89,116.15,71.86z"/>
	<polygon class="st1" points="91.83,155.89 60.83,155.89 56.27,157.79 95.96,164.05 	"/>
	<polygon class="st2" points="107.74,79.24 27.59,89.55 24.14,94.99 68.95,114.84 125.63,253.93 192.1,253.93 208.39,213.5 	"/>
	<polygon class="st3" points="141.76,124.63 191.65,211.11 208.39,213.5 	"/>
	<polygon class="st3" points="108.5,89.9 131.44,110.86 113.97,87.54 	"/>
	<polygon class="st4" points="107.22,78.55 27.32,89.26 25.63,92.32 113.97,87.54 	"/>
	<polygon class="st5" points="184.23,239.77 83.23,125.92 72.87,124.91 125.24,253.93 179.14,249.72 	"/>
	<polygon class="st6" points="146.36,206.51 118.03,189.42 125.62,148.57 116.37,163.28 106.52,179.15 94.89,179.15 123.53,249.72 
		168,249.72 	"/>
	<polygon class="st7" points="133.41,231.28 142.76,248.26 154.26,244.5 151.55,234.68 	"/>
	<polygon class="st3" points="125.62,148.57 116.41,163.32 121.9,170.4 	"/>
	<polygon class="st2" points="125.62,148.57 109.73,183.76 56.27,179.06 59.58,176 101.15,173.34 107.22,142.1 	"/>
	<path class="st8" d="M150.88,71.33c0,13.95-11.31,25.26-25.26,25.26c-13.95,0-25.26-11.31-25.26-25.26
		c0-13.95,11.31-25.26,25.26-25.26C139.57,46.07,150.88,57.38,150.88,71.33z"/>
	<path class="st9" d="M132.95,203.48c-13.09,23.96,13.08,41.39,13.08,41.39l-64.45-9.59l-14.62,18.65h124.91h0.23l16.29-40.43
		C155.8,162.93,132.95,203.48,132.95,203.48z"/>
	<path class="st10" d="M68.72,114.77c24.28,7.09,39.02-13.92,39.02-13.92c-9.13,28.86-32.91,28.86-32.91,28.86"/>
	<polygon class="st8" points="121.95,132.26 107.31,177.87 59.03,176.51 101.15,173.34 108.59,134.27 	"/>
	<polygon class="st11" points="25.63,92.32 24.14,94.99 35.64,100.09 37.49,91.68 	"/>
	<polygon class="st12" points="25.63,92.32 37.49,91.68 38.34,87.79 27.32,89.26 	"/>
	<path class="st9" d="M141.76,75.74c0,10.24-8.3,18.54-18.54,18.54c-10.24,0-18.54-8.3-18.54-18.54c0-10.24,8.3-18.54,18.54-18.54
		C133.46,57.2,141.76,65.5,141.76,75.74z"/>
	<path class="st13" d="M86.47,98.11c0,1.99-1.62,3.61-3.61,3.61c-1.99,0-3.61-1.62-3.61-3.61c0-1.99,1.62-3.61,3.61-3.61
		C84.85,94.5,86.47,96.12,86.47,98.11z"/>
	<polygon class="st7" points="57.17,180.26 68.24,187.02 62.59,176 	"/>
	<polygon class="st8" points="56.64,158.9 60.32,160.79 59.72,156.48 	"/>
	<polygon class="st3" points="84.73,233.98 159.43,246.76 71.99,245.11 	"/>
	<path class="st3" d="M232.1,138.62c2.69-13.42,15.04-20.13,15.16-20.19l0.22-0.16c0.13-0.08,12.98-8.03,31.78-9.1
		c0,0-17.63-6.92-35.36,2.87c-0.63,0.33-15.44,8.27-18.86,25.07c-2.69,13.2,2.43,27.8,15.2,43.38l0.17,0.19
		c0.12,0.13,12.06,12.93,11.67,25.65c-0.15,4.91-2.11,9.07-6.04,12.75c-0.65,0.63-16.17,15.16-37.63-5.53l-5.01,5.2
		c10.34,9.97,19.86,13.01,27.62,13.01c12.07,0,19.9-7.35,20-7.45c5.28-4.95,8.07-10.93,8.27-17.76
		c0.46-15.18-12.21-29.28-13.54-30.72C234.5,162.07,229.91,149.55,232.1,138.62z"/>
	<path class="st2" d="M236.3,227.63c3.94-0.79,7.06-2.38,8.98-3.57c2.08-1.29,3.24-2.41,3.25-2.42c4.55-4.27,6.95-9.39,7.13-15.22
		c0.23-7.42-3.22-14.69-6.16-19.49c-3.18-5.2-6.45-8.69-6.49-8.73c-6.48-7.91-10.93-15.59-13.21-22.83
		c-1.95-6.14-2.36-12.05-1.24-17.56c0.71-3.5,2.05-6.86,3.97-10c1.54-2.51,3.46-4.88,5.7-7.05c3.82-3.69,7.3-5.54,7.33-5.56
		c3.84-2.12,8-3.75,12.36-4.86c3.49-0.89,7.13-1.44,10.79-1.65c5.76-0.32,9.81,0.32,10.45,0.43c-1.32-0.49-18.24-6.5-35.27,2.91
		c-0.63,0.33-15.44,8.27-18.86,25.07c-2.69,13.2,2.43,27.8,15.2,43.38l0.17,0.19c0.12,0.13,12.06,12.93,11.67,25.65
		c-0.15,4.91-2.11,9.07-6.04,12.75c-0.65,0.63-16.17,15.16-37.63-5.53l-2.49,2.58c9.79,9.44,18.61,12.01,25.32,12.01
		C233.09,228.13,234.79,227.93,236.3,227.63z"/>
	<path class="st14" d="M208.4,213.54l-5.01,5.2c10.34,9.97,19.86,13.01,27.62,13.01c12.07,0,19.9-7.35,20-7.45
		c5.28-4.95,8.07-10.93,8.27-17.76c0.16-5.32-1.29-10.51-3.3-15.06l0,0c0,0,3.65,20.61-9.2,26.83c-0.25,0.25-0.48,0.51-0.75,0.76
		C245.39,219.7,229.87,234.23,208.4,213.54z"/>
	<path class="st2" d="M208.39,213.5c0,0-31.28,5.03-31.28,40.43h14.99L208.39,213.5z"/>
</g>
</svg>
