<?xml version="1.0" standalone="no"?><!DOCTYPE svg PUBLIC "-//W3C//DTD SVG 1.1//EN" "http://www.w3.org/Graphics/SVG/1.1/DTD/svg11.dtd"><svg t="1616593672222" class="icon" viewBox="0 0 1024 1024" version="1.1" xmlns="http://www.w3.org/2000/svg" p-id="2851" xmlns:xlink="http://www.w3.org/1999/xlink" width="64" height="64"><defs><style type="text/css"></style></defs><path d="M843 64H181c-52 0-94.6 40.3-94.6 89.6v716.8c0 49.3 42.6 89.6 94.6 89.6h662c52 0 94.6-40.3 94.6-89.6V153.6C937.6 104.3 895 64 843 64z m27.4 784c0 24.6-21.5 44.8-47.8 44.8H201.4c-26.3 0-47.8-20.2-47.8-44.8V176c0-24.6 21.5-44.8 47.8-44.8h621.2c26.3 0 47.8 20.2 47.8 44.8v672z" fill="#bfbfbf" p-id="2852"></path><path d="M452.8 506.3c8.8 3.8 18.2 5.7 27.5 5.7 11.1 0 22.2-2.7 32.3-7.9l110.7-67.9c21.2-11.5 34.2-33.8 34.2-58.6s-13.1-47.1-34.2-58.6l-108.7-66.8-1.9-1.1c-18.7-9.7-40.5-10.5-59.8-2.2-18 7.7-31.8 22.8-37.9 41.4-2.5 7.6-3.8 15.6-3.8 23.6v127.4c0 8.1 1.3 16 3.7 23.6 6.1 18.6 19.9 33.7 37.9 41.4z m20-192.4c0-1.1 0.2-2.2 0.5-3.3 0.1-0.5 0.6-1.8 3-2.9 1.1-0.5 2.5-0.8 4.1-0.8 1.3 0 2.7 0.2 4.1 0.8l108.3 66.5 1.9 1.1c0.8 0.4 1.4 1.3 1.4 2.3 0 1-0.5 1.8-1.4 2.3l-110.2 67.6c-3 1.3-6.1 0.9-8.1 0-2.4-1-2.9-2.4-3-2.9-0.3-1-0.5-2.1-0.5-3.2V313.9z" fill="#bfbfbf" p-id="2853"></path><path d="M299.2 635.2m-33.6 0a33.6 33.6 0 1 0 67.2 0 33.6 33.6 0 1 0-67.2 0Z" fill="#bfbfbf" p-id="2854"></path><path d="M720.3 601.6H415.7c-20.9 0-38.1 15.1-38.1 33.6s17.1 33.6 38.1 33.6h304.6c20.9 0 38.1-15.1 38.1-33.6s-17.1-33.6-38.1-33.6z" fill="#bfbfbf" p-id="2855"></path><path d="M299.2 769.6m-33.6 0a33.6 33.6 0 1 0 67.2 0 33.6 33.6 0 1 0-67.2 0Z" fill="#bfbfbf" p-id="2856"></path><path d="M720.3 736H415.7c-20.9 0-38.1 15.1-38.1 33.6s17.1 33.6 38.1 33.6h304.6c20.9 0 38.1-15.1 38.1-33.6S741.3 736 720.3 736z" fill="#bfbfbf" p-id="2857"></path></svg>