<?xml version="1.0" encoding="utf-8"?>
<!-- Generator: Adobe Illustrator 24.2.1, SVG Export Plug-In . SVG Version: 6.00 Build 0)  -->
<svg version="1.1" id="图层_1" xmlns="http://www.w3.org/2000/svg" xmlns:xlink="http://www.w3.org/1999/xlink" x="0px" y="0px"
	 viewBox="0 0 300 300" style="enable-background:new 0 0 300 300;" xml:space="preserve">
<style type="text/css">
	.st0{fill:#F8EFE4;}
	.st1{fill:#8B817C;}
	.st2{fill:#231814;}
	.st3{fill:#3D3937;}
	.st4{fill:#D2C4B1;}
	.st5{fill:#BBB0A8;}
	.st6{fill:#E0D8CD;}
	.st7{fill:#4C4948;}
	.st8{fill:#7A726D;}
	.st9{fill:#B5A295;}
	.st10{fill:#E8E5DF;}
	.st11{fill:#CFBEB4;}
</style>
<circle class="st0" cx="150" cy="150" r="150"/>
<g>
	<path class="st1" d="M232.39,172.34c-0.02,13.34-11,34.6-12.53,40.4c-1.88,7.1-3.69,14.32-4.94,19.42
		c-0.64,0.93-1.04,1.46-1.45,2.13c-1.01,1.64-1.16,3.33-1.4,4.92h-15.62c0.5-2.85,0.51-2.85,0.95-7.31c0.03-0.35,0.01-0.7,0.02-1.07
		c0.19-10.89,0.07-28.63-0.16-31.66c-0.58-7.5-0.27-15.16-5.66-28.43c-5.22-12.85-11.28-20.38-9.5-28.76
		c1.67-7.89,6.69-24.34,20.36-25.38c18.62-1.42,26.71,31.16,27.52,34.6C230.77,154.63,232.39,170,232.39,172.34z"/>
	<polyline class="st1" points="107.54,157.4 93.57,237.21 78.8,237.21 85.79,139.84 	"/>
	<path class="st2" d="M250.11,106.95c0,0,16.53,5.48,18.34,23.76c1,10.1,1.55,15.3,1.55,15.3s-22.71,4.73-24.89-18.28"/>
	<path class="st2" d="M270,146.01c0,0-0.11-0.99-0.31-2.96c-12.36-0.56-19.21-9.49-19.21-9.49l-4.07,0.48
		C251.77,149.8,270,146.01,270,146.01z"/>
	<path class="st3" d="M250.11,106.95l-5.13,14.4c2.92,1.96,9.09,6.33,17.13,6.72c2.43,0.12,4.35-0.08,5.86-0.49
		C264.71,111.79,250.11,106.95,250.11,106.95z"/>
	<path class="st4" d="M244.01,101.53h-97.95c-4.01,0.1-19.01,0.77-21.77-1c-5.49-3.53-11-16.28-13.28-22.37
		c-1.31-3.51-2.73-9.23-3.88-13.54c-0.8-2.99-2.19-10.18-12.17-10.97C82.8,52.67,42.23,74.2,33.45,82.38
		c-5.62,5.23-5.99,22.15,11.37,21.55c8.51-0.29,10.9,0.19,12.11,2.4c2.39,4.39,11.66,27.71,12.06,28.94
		c7.83,24.33,18.39,49.95,18.39,49.95l0.1-0.04c1.84,2.74,4.96,4.55,8.48,4.55h148.05c5.61,0,10.2-4.59,10.2-10.2v-67.78
		C254.21,106.12,249.62,101.53,244.01,101.53z"/>
	<path class="st4" d="M254.13,179.52c-0.01,13.34-10.99,34.6-12.53,40.4c-1.88,7.1-3.69,14.32-4.94,19.41
		c-0.65,0.94-1.04,1.46-1.45,2.13c-1.01,1.65-1.16,3.33-1.4,4.92h-15.63c0.5-2.85,0.51-2.86,0.95-7.31c0.04-0.35,0.01-0.7,0.02-1.07
		c0.19-10.89,0.07-28.62-0.16-31.65c-0.58-7.5-0.27-15.16-5.66-28.44c-5.22-12.85-11.28-20.38-9.5-28.76
		c1.67-7.89,6.69-24.34,20.36-25.38c18.61-1.42,26.71,31.16,27.52,34.6C252.51,161.81,254.14,177.19,254.13,179.52z"/>
	<path class="st5" d="M235.43,105.12c-1.6,1.2-15.19,51.08-15.19,51.08h27.96l6.02-2.5v-41.96c0-0.61-0.05-1.2-0.16-1.78
		C247.97,107.91,236.59,104.25,235.43,105.12z"/>
	<path class="st5" d="M254.21,131.02c-1.17,2.61-2.03,4.83-2.03,4.83s-7.38,32.92-11.17,48.08c-5.52,22.08-10.87,50.79-11.17,53.67
		c-0.64,6,0.31,4.53,0.1,8.78h3.87c0.24-1.59,0.39-3.27,1.4-4.92c0.41-0.67,0.81-1.2,1.45-2.13c1.25-5.1,3.06-12.32,4.94-19.41
		c1.47-5.56,11.63-25.36,12.47-38.73c0.09-0.54,0.14-1.1,0.14-1.67V131.02z"/>
	<polyline class="st4" points="126.49,164.58 112.52,244.39 97.76,244.39 100.15,147.02 	"/>
	<polyline class="st4" points="126.49,164.58 112.52,244.39 97.76,244.39 100.15,147.02 	"/>
	<path class="st6" d="M244.01,101.53h-97.95c-4.01,0.1-19.01,0.77-21.77-1c-1.75-1.13-3.5-3.19-5.15-5.67l-2.63,9.86
		c0,0-1.2,8.25,21.95,9.04c23.14,0.8,72.23-1.86,84.6-1.86c8.66,0,22.01-0.78,31.16,2.85v-3.03
		C254.21,106.12,249.62,101.53,244.01,101.53z"/>
	<path class="st6" d="M57.26,71.8c17.76-10.37,29.53-15.43,35.09-18.08c-14.53,1.61-50.67,20.99-58.89,28.65
		c-3.1,2.89-4.6,9.35-2.4,14.44C32.58,93.69,36.87,83.72,57.26,71.8z"/>
	<path class="st2" d="M81.41,72.91c0.21,5.76,4.12,18.34,5.63,21.79c3.07,6.97,18.31-0.66,16.05-6.16
		c-1.98-4.82-10.38-17.33-12.32-19.72C87.95,65.32,81.25,68.49,81.41,72.91z"/>
	<polygon class="st4" points="99.1,189.72 122.09,189.72 126.49,164.58 100.15,147.02 	"/>
	<path class="st4" d="M74.97,79.54c0,3.48-2.82,6.29-6.29,6.29c-3.48,0-6.3-2.82-6.3-6.29s2.82-6.3,6.3-6.3
		C72.15,73.24,74.97,76.06,74.97,79.54z"/>
	<path class="st2" d="M77.16,78.77c0,1.98-1.61,3.59-3.59,3.59c-1.98,0-3.59-1.61-3.59-3.59s1.61-3.59,3.59-3.59
		C75.56,75.17,77.16,76.78,77.16,78.77z"/>
	<path class="st2" d="M30,91.44l6.24-1.59c-0.23-0.01-3.27,0-6.15,0.01C30.04,90.38,30.01,90.91,30,91.44z"/>
	<path class="st7" d="M30.01,91.44l2.84-0.72c0.23-0.29,0.46-0.58,0.71-0.87c-1.04,0-2.26,0.01-3.45,0.01
		c-0.01,0.09-0.02,0.17-0.03,0.26c-0.01,0.1-0.02,0.21-0.03,0.32c-0.01,0.17-0.02,0.34-0.03,0.51c-0.01,0.11-0.01,0.23-0.01,0.35
		C30.01,91.34,30.01,91.39,30.01,91.44z"/>
	<path class="st2" d="M48.23,103.85c1.02-1.8,2.44-5.11,2.44-5.11c-1.43,2.72-3.36,4.4-4.35,5.14
		C47,103.86,47.64,103.85,48.23,103.85z"/>
	<polygon class="st8" points="79.57,226.56 78.8,237.21 93.57,237.21 95.43,226.56 	"/>
	<path class="st8" d="M197.46,226.56c-0.01,1.5-0.03,2.93-0.06,4.26c-0.01,0.37,0.01,0.72-0.02,1.07c-0.43,4.46-0.45,4.46-0.95,7.31
		h15.62c0.24-1.58,0.38-3.27,1.4-4.92c0.41-0.67,0.81-1.2,1.45-2.13c0.41-1.66,0.88-3.55,1.39-5.58H197.46z"/>
	<path class="st2" d="M219.21,233.48c-0.02,1.59-0.04,3.11-0.06,4.52c-0.01,0.37,0.01,0.73-0.02,1.07
		c-0.43,4.46-0.45,4.46-0.95,7.31h15.63c0.24-1.59,0.39-3.27,1.4-4.92c0.41-0.67,0.81-1.2,1.45-2.13c0.43-1.73,0.92-3.71,1.45-5.85
		H219.21z"/>
	<path class="st9" d="M126.42,101.2c-0.95-0.17-1.69-0.39-2.12-0.67c-3.07-1.97-6.14-6.81-8.65-11.77
		c-7.32,8.68-21.58,15.26-39.44,16.06c-15.04,0.67-17.19,0.49-21.18-0.22c0.91,0.39,1.47,0.95,1.89,1.72
		c1.99,3.65,8.74,20.41,11.18,26.65c8.1-1.64,20.41-5.53,31.51-11.75C110.43,115.16,119.31,107.12,126.42,101.2z"/>
	<path class="st10" d="M92.71,139.27c-6.75-8.1-12.6-17.55-17.55-18c-2.35-0.22-6.83,0.89-10.89,2.11
		c2.43,5.98,4.52,11.31,4.71,11.88c7.83,24.33,18.39,49.95,18.39,49.95l0.1-0.04c1.84,2.74,4.96,4.55,8.48,4.55h3.14l-0.06,2.67
		c0.58-0.37,1.03-0.76,1.33-1.13c2.92-3.83,11.93-28.8,11.7-29.7C111.84,160.65,99.46,147.37,92.71,139.27z"/>
	<path class="st11" d="M84.04,128.34c-3.23-3.91-6.19-6.82-8.88-7.07c-2.35-0.22-6.83,0.89-10.89,2.11
		c0.01,0.02,0.01,0.03,0.02,0.05c0.1,0.24,0.2,0.49,0.29,0.73c0.06,0.14,0.11,0.28,0.17,0.42c0.05,0.13,0.1,0.26,0.16,0.39
		c0.09,0.22,0.18,0.44,0.26,0.65c0.04,0.11,0.08,0.21,0.13,0.32c0.09,0.22,0.18,0.45,0.27,0.67c0.03,0.08,0.06,0.16,0.1,0.24
		c0.1,0.24,0.19,0.47,0.28,0.71c0.01,0.04,0.03,0.07,0.04,0.11c0.11,0.27,0.22,0.55,0.33,0.81c0.01,0.03,0.02,0.06,0.04,0.09
		c0.11,0.27,0.21,0.53,0.31,0.78c0.01,0.02,0.02,0.05,0.03,0.07c0.11,0.26,0.21,0.52,0.31,0.77c0,0.01,0,0.01,0.01,0.01
		c0.42,1.06,0.79,2,1.1,2.78C72.48,132.08,78.08,130.54,84.04,128.34z"/>
	<path class="st9" d="M162.4,188.12c-23.94-1.6-44.69-30.73-44.69-30.73l-9.57,21.95c0,0-3.99,13.17-3.99,16.36
		c0,2.23,8.78,7.78,15.01,10.78l2.94-16.76h48.04C168.56,188.93,166.07,188.37,162.4,188.12z"/>
	<path class="st4" d="M136.07,122.81c0,0-31.61-1.04-34.48,19.57c-0.49,3.49-2.49,47.33-2.49,47.33l-1.34,54.67h14.76l9.57-54.67
		c0,0,3.97-32.36,6.53-45.89C130.48,133.99,131.86,127.05,136.07,122.81z"/>
	<path class="st4" d="M117.91,125.48c-7.6,2.53-15,7.43-16.32,16.9c-0.49,3.49-2.49,47.33-2.49,47.33l-1.34,54.67h8.43
		L117.91,125.48z"/>
	<polygon class="st2" points="98.03,233.48 97.76,244.39 112.52,244.39 114.43,233.48 	"/>
	<path class="st2" d="M70.48,77.28c0,0-1.4,1.6-2.3,5.09c0,0,3.49-2.3,4.69-2.59"/>
	<path class="st3" d="M97.77,79.09c-2.86-4.51-5.92-8.95-6.99-10.28c-2.83-3.5-9.53-0.33-9.36,4.09c0.15,4.12,2.19,11.72,3.89,16.98
		L97.77,79.09z"/>
</g>
</svg>
